<svg width="18" height="19" viewBox="0 0 18 19" fill="none" xmlns="http://www.w3.org/2000/svg">
<path d="M1.75855 8.99999V0.27272H3.60372V4.12073H3.71877L6.8594 0.27272H9.07104L5.83241 4.18039L9.10939 8.99999H6.90201L4.51139 5.41193L3.60372 6.51988V8.99999H1.75855Z" fill="black"/>
<path d="M10.032 8.99999V0.27272H11.8771V4.12073H11.9922L15.1328 0.27272H17.3445L14.1058 4.18039L17.3828 8.99999H15.1754L12.7848 5.41193L11.8771 6.51988V8.99999H10.032Z" fill="black"/>
<path d="M2.30077 18.8466H0.323498L3.33628 10.1193H5.71412L8.72265 18.8466H6.74537L4.55929 12.1136H4.49111L2.30077 18.8466ZM2.17719 15.4162H6.84765V16.8565H2.17719V15.4162Z" fill="black"/>
<path d="M17.3828 14.483C17.3828 15.4347 17.2024 16.2443 16.8416 16.9119C16.4837 17.5795 15.995 18.0895 15.3757 18.4418C14.7592 18.7912 14.066 18.9659 13.2962 18.9659C12.5206 18.9659 11.8246 18.7898 11.2081 18.4375C10.5916 18.0852 10.1044 17.5753 9.74644 16.9077C9.38848 16.2401 9.20951 15.4318 9.20951 14.483C9.20951 13.5312 9.38848 12.7216 9.74644 12.054C10.1044 11.3864 10.5916 10.8778 11.2081 10.5284C11.8246 10.1761 12.5206 10 13.2962 10C14.066 10 14.7592 10.1761 15.3757 10.5284C15.995 10.8778 16.4837 11.3864 16.8416 12.054C17.2024 12.7216 17.3828 13.5312 17.3828 14.483ZM15.5121 14.483C15.5121 13.8665 15.4197 13.3466 15.2351 12.9233C15.0533 12.5 14.7962 12.179 14.4638 11.9602C14.1314 11.7415 13.7422 11.6321 13.2962 11.6321C12.8501 11.6321 12.4609 11.7415 12.1285 11.9602C11.7962 12.179 11.5376 12.5 11.353 12.9233C11.1712 13.3466 11.0802 13.8665 11.0802 14.483C11.0802 15.0994 11.1712 15.6193 11.353 16.0426C11.5376 16.4659 11.7962 16.7869 12.1285 17.0057C12.4609 17.2244 12.8501 17.3338 13.2962 17.3338C13.7422 17.3338 14.1314 17.2244 14.4638 17.0057C14.7962 16.7869 15.0533 16.4659 15.2351 16.0426C15.4197 15.6193 15.5121 15.0994 15.5121 14.483Z" fill="black"/>
</svg>
